<svg aria-hidden="true" xmlns="http://www.w3.org/2000/svg" xmlns:xlink="http://www.w3.org/1999/xlink"><symbol viewBox="0 0 22 16" fill="none" id="next" xmlns="http://www.w3.org/2000/svg">
<path d="M20.9067 7.23314C21.3302 7.65666 21.3302 8.34333 20.9067 8.76686L14.0049 15.6686C13.5814 16.0921 12.8947 16.0921 12.4712 15.6686C12.0477 15.2451 12.0477 14.5584 12.4712 14.1349L18.6061 8L12.4712 1.86511C12.0477 1.44159 12.0477 0.754917 12.4712 0.331392C12.8947 -0.0921336 13.5814 -0.0921337 14.0049 0.331392L20.9067 7.23314ZM-1.02691e-07 6.9155L20.1398 6.91549L20.1398 9.0845L1.02691e-07 9.0845L-1.02691e-07 6.9155Z" fill="currentColor"/>
</symbol><symbol viewBox="0 0 21 16" fill="none" id="prev" xmlns="http://www.w3.org/2000/svg">
<path d="M1.23314 7.23314C0.809612 7.65666 0.809612 8.34333 1.23314 8.76686L8.13488 15.6686C8.55841 16.0921 9.24508 16.0921 9.66861 15.6686C10.0921 15.2451 10.0921 14.5584 9.66861 14.1349L3.53372 8L9.66861 1.86511C10.0921 1.44159 10.0921 0.754917 9.66861 0.331392C9.24508 -0.0921335 8.55841 -0.0921336 8.13488 0.331392L1.23314 7.23314ZM20.1003 6.9155L2 6.91549L2 9.0845L20.1003 9.0845L20.1003 6.9155Z" fill="currentColor"/>
</symbol></svg>